<svg width="545.5183349609375px" height="116.96000366210937px" xmlns="http://www.w3.org/2000/svg" viewBox="-22.75916748046876 16.519998168945314 545.5183349609375 116.96000366210937" style="background: rgba(249, 247, 242, 1);" preserveAspectRatio="xMidYMid"><defs><filter id="editing-hole" x="-100%" y="-100%" width="300%" height="300%"><feFlood flood-color="#323232" result="black"></feFlood><feMorphology operator="dilate" radius="2" in="SourceGraphic" result="erode"></feMorphology><feGaussianBlur in="erode" stdDeviation="4" result="blur"></feGaussianBlur><feOffset in="blur" dx="2" dy="2" result="offset"></feOffset><feComposite operator="atop" in="offset" in2="black" result="merge"></feComposite><feComposite operator="in" in="merge" in2="SourceGraphic" result="inner-shadow"></feComposite></filter></defs><g filter="url(#editing-hole)"><g transform="translate(56.38286256790161, 91.56000328063965)"><path d="M17.22-1.08L17.04 0.42L17.04 0.42Q13.92 0 10.05 0L10.05 0L10.05 0Q6.18 0 3.12 0.48L3.12 0.48L2.88-1.08L2.88-1.08Q4.80-1.68 6.48-1.98L6.48-1.98L6.48-1.98Q7.02-6.66 7.02-14.22L7.02-14.22L7.02-17.04L7.02-17.04Q7.02-25.08 6.42-29.40L6.42-29.40L6.42-29.40Q4.80-29.58 2.52-30.36L2.52-30.36L2.70-31.92L2.70-31.92Q6.12-31.26 9.87-31.26L9.87-31.26L9.87-31.26Q13.62-31.26 15.24-31.68L15.24-31.68L15.36-30.66L15.36-30.66Q13.74-30.24 13.74-29.28L13.74-29.28L13.74-29.28Q13.74-28.56 15.15-26.25L15.15-26.25L15.15-26.25Q16.56-23.94 17.88-21.78L17.88-21.78L17.88-21.78Q21.84-15.48 27.24-6.30L27.24-6.30L27.42-6.42L27.42-13.74L27.42-13.74Q27.42-21.78 26.58-25.83L26.58-25.83L26.58-25.83Q25.74-29.88 23.70-30.54L23.70-30.54L23.82-31.56L23.82-31.56Q25.38-31.26 28.50-31.26L28.50-31.26L28.50-31.26Q31.62-31.26 34.92-31.92L34.92-31.92L35.10-30.36L35.10-30.36Q32.64-29.58 30.96-29.40L30.96-29.40L30.96-29.40Q30.36-24.60 30.36-17.04L30.36-17.04L30.36-14.22L30.36-14.22Q30.36-5.10 30.96-1.86L30.96-1.86L30.96-1.86Q33.48-1.44 34.98-0.90L34.98-0.90L34.80 0.66L34.80 0.66Q31.80 0 29.16 0L29.16 0L29.16 0Q26.52 0 25.08 0.24L25.08 0.24L25.08 0.24Q25.08-1.08 23.25-4.20L23.25-4.20L23.25-4.20Q21.42-7.32 19.92-9.72L19.92-9.72L19.92-9.72Q15.06-17.58 10.38-25.68L10.38-25.68L10.14-25.56L10.14-17.52L10.14-17.52Q10.14-5.58 11.94-1.98L11.94-1.98L11.94-1.98Q14.64-1.68 17.22-1.08L17.22-1.08ZM65.04-17.04L65.04-17.04L65.04-14.22L65.04-14.22Q65.04-6 65.64-1.92L65.64-1.92L65.64-1.92Q68.40-1.56 70.20-1.08L70.20-1.08L70.02 0.42L70.02 0.42Q67.08 0 63.99 0L63.99 0L63.99 0Q60.90 0 59.76 0.18L59.76 0.18L59.52-0.60L59.52-0.60Q60.06-1.20 60.24-4.02L60.24-4.02L60.24-4.02Q57.12-0.78 53.04 0.72L53.04 0.72L53.04 0.72Q42.72 0.72 42.72-11.58L42.72-11.58L42.72-11.58Q42.72-14.28 43.14-20.22L43.14-20.22L43.14-20.22Q43.56-26.16 43.56-27.18L43.56-27.18L43.56-27.18Q43.56-28.20 43.20-29.16L43.20-29.16L43.20-29.22L43.20-29.22Q40.68-29.64 39.18-30.12L39.18-30.12L39.42-31.74L39.42-31.74Q42.90-31.26 45.72-31.26L45.72-31.26L45.72-31.26Q48.54-31.26 50.34-31.56L50.34-31.56L50.58-30.54L50.58-30.54Q48.42-29.40 48.06-26.40L48.06-26.40L48.06-26.40Q47.34-20.64 47.34-14.58L47.34-14.58L47.34-14.58Q47.34-8.52 48.75-5.97L48.75-5.97L48.75-5.97Q50.16-3.42 54.03-3.42L54.03-3.42L54.03-3.42Q57.90-3.42 60.30-5.64L60.30-5.64L60.30-5.64Q60.54-10.44 60.54-16.98L60.54-16.98L60.54-16.98Q60.54-23.52 60.06-29.28L60.06-29.28L60.06-29.28Q57.36-29.58 55.08-30.18L55.08-30.18L55.26-31.68L55.26-31.68Q58.38-31.26 62.25-31.26L62.25-31.26L62.25-31.26Q66.12-31.26 69.18-31.74L69.18-31.74L69.42-30.18L69.42-30.18Q67.74-29.64 65.64-29.28L65.64-29.28L65.64-29.28Q65.04-25.26 65.04-17.04ZM86.46-1.02L86.22 0.48L86.22 0.48Q83.34 0 78.81 0L78.81 0L78.81 0Q74.28 0 71.88 0.48L71.88 0.48L71.64-1.08L71.64-1.08Q74.16-1.86 75.60-2.04L75.60-2.04L75.60-2.04Q76.74-3.78 80.55-8.82L80.55-8.82L80.55-8.82Q84.36-13.86 85.74-15.72L85.74-15.72L76.74-29.22L76.74-29.22Q75-29.40 72.72-30.18L72.72-30.18L72.96-31.74L72.96-31.74Q75.36-31.26 80.34-31.26L80.34-31.26L80.34-31.26Q85.32-31.26 88.20-31.74L88.20-31.74L88.44-30.24L88.44-30.24Q85.32-29.52 83.94-29.34L83.94-29.34L83.94-29.34Q84.06-26.94 88.92-18.96L88.92-18.96L88.92-18.96Q93.96-27.30 93.96-29.04L93.96-29.04L93.96-29.04Q93.96-30.12 92.34-30.54L92.34-30.54L92.58-31.56L92.58-31.56Q94.38-31.26 97.29-31.26L97.29-31.26L97.29-31.26Q100.20-31.26 103.68-31.74L103.68-31.74L103.92-30.18L103.92-30.18Q102.24-29.64 99.72-29.22L99.72-29.22L99.72-29.22Q98.88-27.90 95.31-23.25L95.31-23.25L95.31-23.25Q91.74-18.60 90.30-16.68L90.30-16.68L99.90-2.04L99.90-2.04Q102.42-1.62 104.10-1.08L104.10-1.08L103.86 0.48L103.86 0.48Q100.38 0 97.38 0L97.38 0L97.38 0Q94.38 0 92.58 0.30L92.58 0.30L92.34-0.72L92.34-0.72Q92.82-1.02 92.82-1.80L92.82-1.80L92.82-1.80Q92.82-4.62 87.30-13.74L87.30-13.74L87.30-13.74Q81.54-4.14 81.12-1.92L81.12-1.92L81.24-1.92L81.24-1.92Q84.42-1.50 86.46-1.02L86.46-1.02ZM125.88-28.02L125.88-28.02L125.88-28.02Q123.78-29.04 121.86-29.04L121.86-29.04L121.86-29.04Q119.94-29.04 119.28-28.80L119.28-28.80L119.28-28.80Q118.80-25.56 118.80-16.26L118.80-16.26L118.80-16.26Q118.80-6.96 119.46-1.98L119.46-1.98L119.46-1.98Q122.16-1.68 124.44-1.08L124.44-1.08L124.26 0.42L124.26 0.42Q121.14 0 117.09 0L117.09 0L117.09 0Q113.04 0 109.98 0.48L109.98 0.48L109.74-1.08L109.74-1.08Q110.94-1.44 113.88-1.98L113.88-1.98L113.88-1.98Q114.42-6.30 114.42-14.22L114.42-14.22L114.42-17.04L114.42-17.04Q114.42-21.24 113.76-28.80L113.76-28.80L113.76-28.80Q113.10-29.04 111.30-29.04L111.30-29.04L111.30-29.04Q109.50-29.04 107.46-28.20L107.46-28.20L107.46-28.20Q106.86-26.34 106.62-23.22L106.62-23.22L105.06-23.22L105.06-23.22Q105.06-28.14 103.44-30.84L103.44-30.84L103.74-31.86L103.74-31.86Q108.36-31.26 116.70-31.26L116.70-31.26L116.70-31.26Q125.04-31.26 130.14-31.92L130.14-31.92L130.50-30.78L130.50-30.78Q129-29.10 128.46-27.51L128.46-27.51L128.46-27.51Q127.92-25.92 127.80-23.22L127.80-23.22L126.30-23.22L126.30-23.22Q125.88-25.20 125.88-28.02ZM165.18-0.54L164.88 0.66L164.88 0.66Q160.98 0 154.29 0L154.29 0L154.29 0Q147.60 0 143.10 0.60L143.10 0.60L142.92-0.90L142.92-0.90Q144.60-1.56 146.76-1.98L146.76-1.98L146.76-1.98Q147.36-5.58 147.36-14.22L147.36-14.22L147.36-17.04L147.36-17.04Q147.36-24.48 146.76-29.28L146.76-29.28L146.76-29.28Q144.78-29.58 142.98-30.18L142.98-30.18L143.22-31.74L143.22-31.74Q146.28-31.26 150.42-31.26L150.42-31.26L150.42-31.26Q154.56-31.26 157.50-31.74L157.50-31.74L157.68-30.24L157.68-30.24Q154.98-29.58 152.34-29.28L152.34-29.28L152.34-29.28Q151.86-26.04 151.86-15.93L151.86-15.93L151.86-15.93Q151.86-5.82 152.34-2.46L152.34-2.46L152.34-2.46Q153.78-2.22 156.42-2.22L156.42-2.22L156.42-2.22Q159.06-2.22 161.16-3.24L161.16-3.24L161.16-3.24Q162.00-5.28 162.00-8.04L162.00-8.04L163.50-8.04L163.50-8.04Q163.74-3.42 165.18-0.54L165.18-0.54ZM180.54 0.72L180.54 0.72Q174.60 0.72 170.94-3.03L170.94-3.03L170.94-3.03Q167.28-6.78 167.28-13.08L167.28-13.08L167.28-13.08Q167.28-19.38 171.12-24.90L171.12-24.90L171.12-24.90Q174.96-30.42 181.14-31.98L181.14-31.98L181.14-31.98Q187.32-31.98 190.56-28.47L190.56-28.47L190.56-28.47Q193.80-24.96 193.80-18.48L193.80-18.48L193.80-18.48Q193.80-12 190.29-6.78L190.29-6.78L190.29-6.78Q186.78-1.56 180.54 0.72L180.54 0.72ZM179.52-28.32L179.52-28.32L179.52-28.32Q176.82-28.32 174.84-26.82L174.84-26.82L174.84-26.82Q172.38-22.62 172.38-16.26L172.38-16.26L172.38-16.26Q172.38-8.94 176.46-5.04L176.46-5.04L176.46-5.04Q178.62-2.94 181.56-2.94L181.56-2.94L181.56-2.94Q184.50-2.94 186.30-4.50L186.30-4.50L186.30-4.50Q188.70-8.70 188.70-14.76L188.70-14.76L188.70-14.76Q188.70-20.82 186.54-24.57L186.54-24.57L186.54-24.57Q184.38-28.32 179.52-28.32ZM212.10 0.72L212.10 0.72Q206.16 0.72 202.50-3.03L202.50-3.03L202.50-3.03Q198.84-6.78 198.84-13.08L198.84-13.08L198.84-13.08Q198.84-19.38 202.68-24.90L202.68-24.90L202.68-24.90Q206.52-30.42 212.70-31.98L212.70-31.98L212.70-31.98Q218.88-31.98 222.12-28.47L222.12-28.47L222.12-28.47Q225.36-24.96 225.36-18.48L225.36-18.48L225.36-18.48Q225.36-12 221.85-6.78L221.85-6.78L221.85-6.78Q218.34-1.56 212.10 0.72L212.10 0.72ZM211.08-28.32L211.08-28.32L211.08-28.32Q208.38-28.32 206.40-26.82L206.40-26.82L206.40-26.82Q203.94-22.62 203.94-16.26L203.94-16.26L203.94-16.26Q203.94-8.94 208.02-5.04L208.02-5.04L208.02-5.04Q210.18-2.94 213.12-2.94L213.12-2.94L213.12-2.94Q216.06-2.94 217.86-4.50L217.86-4.50L217.86-4.50Q220.26-8.70 220.26-14.76L220.26-14.76L220.26-14.76Q220.26-20.82 218.10-24.57L218.10-24.57L218.10-24.57Q215.94-28.32 211.08-28.32ZM239.40-16.98L239.40-16.98L239.40-14.52L239.40-14.52Q245.52-21 247.35-23.85L247.35-23.85L247.35-23.85Q249.18-26.70 249.18-28.29L249.18-28.29L249.18-28.29Q249.18-29.88 248.28-30.54L248.28-30.54L248.58-31.56L248.58-31.56Q249.90-31.26 252.39-31.26L252.39-31.26L252.39-31.26Q254.88-31.26 258.48-31.74L258.48-31.74L258.72-30.18L258.72-30.18Q257.34-29.70 254.70-29.22L254.70-29.22L254.70-29.22Q254.16-25.14 247.74-19.08L247.74-19.08L255.66-2.04L255.66-2.04Q258.18-1.62 259.62-1.08L259.62-1.08L259.38 0.48L259.38 0.48Q257.16 0 253.59 0L253.59 0L253.59 0Q250.02 0 248.58 0.30L248.58 0.30L248.28-0.72L248.28-0.72Q249.12-1.56 249.12-3.24L249.12-3.24L249.12-3.24Q249.12-7.26 244.38-16.32L244.38-16.32L244.38-16.32Q243.18-15.30 239.40-12.18L239.40-12.18L239.40-12.18Q239.58-4.86 239.94-1.98L239.94-1.98L239.94-1.98Q242.64-1.68 244.92-1.08L244.92-1.08L244.74 0.42L244.74 0.42Q241.62 0 237.75 0L237.75 0L237.75 0Q233.88 0 230.82 0.48L230.82 0.48L230.58-1.08L230.58-1.08Q232.26-1.62 234.36-1.98L234.36-1.98L234.36-1.98Q234.90-6.30 234.90-14.22L234.90-14.22L234.90-17.04L234.90-17.04Q234.90-24.96 234.30-29.28L234.30-29.28L234.30-29.28Q232.20-29.64 230.52-30.18L230.52-30.18L230.76-31.74L230.76-31.74Q233.82-31.26 237.69-31.26L237.69-31.26L237.69-31.26Q241.56-31.26 244.68-31.68L244.68-31.68L244.86-30.18L244.86-30.18Q242.58-29.58 239.88-29.28L239.88-29.28L239.88-29.28Q239.40-26.04 239.40-16.98ZM261.66-29.64L261.66-31.14L276-31.56L276-31.56Q281.88-31.56 283.86-30.12L283.86-30.12L283.86-30.12Q285.78-28.80 285.78-26.07L285.78-26.07L285.78-26.07Q285.78-23.34 283.83-21.15L283.83-21.15L283.83-21.15Q281.88-18.96 279.06-17.88L279.06-17.88L279.06-17.64L279.06-17.64Q282.66-17.64 284.88-16.11L284.88-16.11L284.88-16.11Q287.10-14.58 287.10-11.13L287.10-11.13L287.10-11.13Q287.10-7.68 283.26-4.05L283.26-4.05L283.26-4.05Q279.42-0.42 275.40 0.72L275.40 0.72L275.40 0.72Q273.96 0.72 271.47 0.12L271.47 0.12L271.47 0.12Q268.98-0.48 267.42-1.08L267.42-1.08L267.42-1.08Q266.76-0.30 266.22 1.14L266.22 1.14L264.96 0.84L264.96 0.84Q266.10-4.50 266.10-14.25L266.10-14.25L266.10-14.25Q266.10-24 265.56-28.86L265.56-28.86L265.56-28.86Q263.52-29.64 261.66-29.64L261.66-29.64ZM272.94-18.48L273.48-18.48L273.48-18.48Q277.20-18.48 278.88-19.50L278.88-19.50L278.88-19.50Q280.38-21.36 280.38-24.24L280.38-24.24L280.38-24.24Q280.38-29.46 274.68-29.46L274.68-29.46L274.68-29.46Q272.70-29.46 271.02-28.80L271.02-28.80L271.02-28.80Q270.60-24.72 270.60-16.26L270.60-16.26L270.60-16.26Q270.60-7.80 270.84-4.44L270.84-4.44L270.84-4.44Q273.30-3.12 276.27-3.12L276.27-3.12L276.27-3.12Q279.24-3.12 280.80-4.26L280.80-4.26L280.80-4.26Q281.82-6.30 281.82-9.18L281.82-9.18L281.82-9.18Q281.82-13.14 279.48-14.76L279.48-14.76L279.48-14.76Q277.14-16.38 272.70-16.38L272.70-16.38L272.94-18.48ZM306.60 0.72L306.60 0.72Q300.66 0.72 297-3.03L297-3.03L297-3.03Q293.34-6.78 293.34-13.08L293.34-13.08L293.34-13.08Q293.34-19.38 297.18-24.90L297.18-24.90L297.18-24.90Q301.02-30.42 307.20-31.98L307.20-31.98L307.20-31.98Q313.38-31.98 316.62-28.47L316.62-28.47L316.62-28.47Q319.86-24.96 319.86-18.48L319.86-18.48L319.86-18.48Q319.86-12 316.35-6.78L316.35-6.78L316.35-6.78Q312.84-1.56 306.60 0.72L306.60 0.72ZM305.58-28.32L305.58-28.32L305.58-28.32Q302.88-28.32 300.90-26.82L300.90-26.82L300.90-26.82Q298.44-22.62 298.44-16.26L298.44-16.26L298.44-16.26Q298.44-8.94 302.52-5.04L302.52-5.04L302.52-5.04Q304.68-2.94 307.62-2.94L307.62-2.94L307.62-2.94Q310.56-2.94 312.36-4.50L312.36-4.50L312.36-4.50Q314.76-8.70 314.76-14.76L314.76-14.76L314.76-14.76Q314.76-20.82 312.60-24.57L312.60-24.57L312.60-24.57Q310.44-28.32 305.58-28.32ZM338.16 0.72L338.16 0.72Q332.22 0.72 328.56-3.03L328.56-3.03L328.56-3.03Q324.90-6.78 324.90-13.08L324.90-13.08L324.90-13.08Q324.90-19.38 328.74-24.90L328.74-24.90L328.74-24.90Q332.58-30.42 338.76-31.98L338.76-31.98L338.76-31.98Q344.94-31.98 348.18-28.47L348.18-28.47L348.18-28.47Q351.42-24.96 351.42-18.48L351.42-18.48L351.42-18.48Q351.42-12 347.91-6.78L347.91-6.78L347.91-6.78Q344.40-1.56 338.16 0.72L338.16 0.72ZM337.14-28.32L337.14-28.32L337.14-28.32Q334.44-28.32 332.46-26.82L332.46-26.82L332.46-26.82Q330-22.62 330-16.26L330-16.26L330-16.26Q330-8.94 334.08-5.04L334.08-5.04L334.08-5.04Q336.24-2.94 339.18-2.94L339.18-2.94L339.18-2.94Q342.12-2.94 343.92-4.50L343.92-4.50L343.92-4.50Q346.32-8.70 346.32-14.76L346.32-14.76L346.32-14.76Q346.32-20.82 344.16-24.57L344.16-24.57L344.16-24.57Q342-28.32 337.14-28.32ZM365.46-16.98L365.46-16.98L365.46-14.52L365.46-14.52Q371.58-21 373.41-23.85L373.41-23.85L373.41-23.85Q375.24-26.70 375.24-28.29L375.24-28.29L375.24-28.29Q375.24-29.88 374.34-30.54L374.34-30.54L374.64-31.56L374.64-31.56Q375.96-31.26 378.45-31.26L378.45-31.26L378.45-31.26Q380.94-31.26 384.54-31.74L384.54-31.74L384.78-30.18L384.78-30.18Q383.40-29.70 380.76-29.22L380.76-29.22L380.76-29.22Q380.22-25.14 373.80-19.08L373.80-19.08L381.72-2.04L381.72-2.04Q384.24-1.62 385.68-1.08L385.68-1.08L385.44 0.48L385.44 0.48Q383.22 0 379.65 0L379.65 0L379.65 0Q376.08 0 374.64 0.30L374.64 0.30L374.34-0.72L374.34-0.72Q375.18-1.56 375.18-3.24L375.18-3.24L375.18-3.24Q375.18-7.26 370.44-16.32L370.44-16.32L370.44-16.32Q369.24-15.30 365.46-12.18L365.46-12.18L365.46-12.18Q365.64-4.86 366-1.98L366-1.98L366-1.98Q368.70-1.68 370.98-1.08L370.98-1.08L370.80 0.42L370.80 0.42Q367.68 0 363.81 0L363.81 0L363.81 0Q359.94 0 356.88 0.48L356.88 0.48L356.64-1.08L356.64-1.08Q358.32-1.62 360.42-1.98L360.42-1.98L360.42-1.98Q360.96-6.30 360.96-14.22L360.96-14.22L360.96-17.04L360.96-17.04Q360.96-24.96 360.36-29.28L360.36-29.28L360.36-29.28Q358.26-29.64 356.58-30.18L356.58-30.18L356.82-31.74L356.82-31.74Q359.88-31.26 363.75-31.26L363.75-31.26L363.75-31.26Q367.62-31.26 370.74-31.68L370.74-31.68L370.92-30.18L370.92-30.18Q368.64-29.58 365.94-29.28L365.94-29.28L365.94-29.28Q365.46-26.04 365.46-16.98Z" fill="#ccc"></path></g></g><style>text {
  font-size: 64px;
  font-family: Arial Black;
  dominant-baseline: central;
  text-anchor: middle;
}</style></svg>